:SAMPLES-PER-SECOND 30
:FULLY-SPECIFIED
:DEGREES
1
root  75.1337 40.4284 -2.17076 -94.6131 -88.8454 94.6154
RightUpLeg  0.434501 -8.00669 -4.34169
RightLeg  5.08941 -5.89167 3.75154
RightFoot  -4.45983 0.111813 -2.53234
RightToes  0.00048216 0.542163 -0.142577
Spine  0.753407 0.314016 -3.10061
Spine1  5.47462 0.00299721 1.85919
HEad  2.54126 -2.01424 -0.0637005
LeftShoulder1  1.27346 -2.96505 -12.5545
LeftArm  -18.3533 13.9489 -8.16066
LeftForeArm  21.3641 -2.74341 -0.664095
LeftHand  -0.25398 0.0180481 5.50724
RightShoulder  0.67604 0.455519 9.76569
RightArm  -26.296 -6.2998 7.27633
RightForeArm  2.54172 3.25665 0.979057
RightHand  -1.75289 5.7371 -18.522
LeftUpLeg  1.223 3.19137 -0.398457
LeftLeg  1.86643 15.6192 -3.4459
LeftFoot  -3.28507 -0.0843547 1.57866
LeftToes  1.06247e-005 4.65855e-005 -8.185e-006
2
root  75.1364 40.4283 -2.17358 -95.4616 -88.8701 95.4483
RightUpLeg  0.45802 -7.9871 -4.30993
RightLeg  5.06636 -5.8884 3.74965
RightFoot  -4.45318 0.110183 -2.50697
RightToes  0.00048216 0.542163 -0.142577
Spine  0.785815 0.29237 -3.06985
Spine1  5.44746 -0.0159524 1.84257
HEad  -1.48447 -2.11079 -0.663368
LeftShoulder1  1.25714 -2.88782 -12.5338
LeftArm  -18.3499 13.9736 -8.20613
LeftForeArm  21.337 -2.75457 -0.667941
LeftHand  -0.25398 0.0180481 5.50724
RightShoulder  0.68303 0.501745 9.74124
RightArm  -26.3278 -6.30102 7.31092
RightForeArm  2.41325 3.21863 0.967471
RightHand  -1.75317 5.68214 -18.6119
LeftUpLeg  1.2633 3.21271 -0.356675
LeftLeg  1.80878 15.6054 -3.4654
LeftFoot  -3.30847 -0.082749 1.5537
LeftToes  1.06247e-005 4.65855e-005 -8.185e-006
3
root  75.1407 40.4276 -2.18061 -98.6794 -88.9051 98.6243
RightUpLeg  0.513824 -7.93927 -4.24754
RightLeg  5.01656 -5.87144 3.73668
RightFoot  -4.43868 0.106783 -2.45404
RightToes  0.00048216 0.542163 -0.142577
Spine  1.06288 0.31108 -3.18587
Spine1  5.0934 -0.0525709 2.08447
HEad  -0.78401 -1.61734 -0.0575347
LeftShoulder1  1.24266 -2.7649 -12.7008
LeftArm  -18.2868 14.0352 -8.15743
LeftForeArm  21.3225 -2.80022 -0.690687
LeftHand  -0.25398 0.0180481 5.50724
RightShoulder  0.667842 0.461725 9.5043
RightArm  -26.3261 -6.30296 7.48214
RightForeArm  2.51589 3.20312 0.960753
RightHand  -1.76218 5.70838 -18.6621
LeftUpLeg  1.3523 3.25395 -0.284842
LeftLeg  1.71031 15.6028 -3.49971
LeftFoot  -3.32555 -0.0806437 1.52097
LeftToes  1.06247e-005 4.65855e-005 -8.185e-006
4
root  75.1443 40.4271 -2.18997 -103.211 -88.9265 103.11
RightUpLeg  0.561802 -7.8789 -4.17721
RightLeg  4.98093 -5.85029 3.70706
RightFoot  -4.42589 0.104912 -2.42491
RightToes  0.00048216 0.542163 -0.142577
Spine  1.47469 0.386108 -3.43983
Spine1  4.51319 -0.0790961 2.54744
HEad  -0.674773 -1.67154 -0.281141
LeftShoulder1  1.25027 -2.69501 -13.0782
LeftArm  -18.1512 14.1108 -7.94752
LeftForeArm  21.3194 -2.89646 -0.738856
LeftHand  -0.25398 0.0180481 5.50724
RightShoulder  0.636247 0.349322 9.13921
RightArm  -26.2688 -6.33527 7.68848
RightForeArm  2.59185 3.22809 0.978993
RightHand  -1.76602 5.69702 -18.7194
LeftUpLeg  1.44146 3.29125 -0.222191
LeftLeg  1.62394 15.6331 -3.52449
LeftFoot  -3.32172 -0.0795189 1.50348
LeftToes  1.06247e-005 4.65855e-005 -8.185e-006
5
root  75.1482 40.4267 -2.1991 -106.464 -88.9401 106.346
RightUpLeg  0.562815 -7.82943 -4.11423
RightLeg  4.98222 -5.85803 3.68068
RightFoot  -4.42055 0.10621 -2.44511
RightToes  0.00048216 0.542163 -0.142577
Spine  1.55811 0.419068 -3.55124
Spine1  4.33232 -0.0920131 2.76479
HEad  -0.582006 -1.64418 -0.347302
LeftShoulder1  1.25767 -2.65898 -13.3381
LeftArm  -18.0807 14.1359 -7.79147
LeftForeArm  21.2703 -2.99755 -0.772829
LeftHand  -0.25398 0.0180481 5.50724
RightShoulder  0.633332 0.369804 8.95715
RightArm  -26.244 -6.37821 7.769
RightForeArm  2.32233 3.22522 0.995855
RightHand  -1.76343 5.56778 -18.902
LeftUpLeg  1.46884 3.31618 -0.177911
LeftLeg  1.60022 15.671 -3.5283
LeftFoot  -3.32629 -0.0796639 1.50574
LeftToes  1.06247e-005 4.65855e-005 -8.185e-006
6
root  75.1546 40.4262 -2.20634 -107.563 -88.958 107.452
RightUpLeg  0.531168 -7.79923 -4.06641
RightLeg  5.00279 -5.8839 3.66938
RightFoot  -4.42005 0.107759 -2.46923
RightToes  0.00048216 0.542163 -0.142577
Spine  1.17121 0.353397 -3.37117
Spine1  4.801 -0.0960146 2.48059
HEad  -0.675345 -1.4894 -0.2261
LeftShoulder1  1.23925 -2.59517 -13.239
LeftArm  -18.195 14.071 -7.88296
LeftForeArm  21.1983 -3.0019 -0.743771
LeftHand  -0.25398 0.0180481 5.50724
RightShoulder  0.664096 0.529237 9.08767
RightArm  -26.3397 -6.32746 7.74101
RightForeArm  1.92052 3.13346 0.969742
RightHand  -1.76724 5.43365 -19.1634
LeftUpLeg  1.43679 3.33679 -0.14195
LeftLeg  1.63839 15.672 -3.52746
LeftFoot  -3.3482 -0.0797747 1.50746
LeftToes  1.06247e-005 4.65855e-005 -8.185e-006
7
root  75.1624 40.4255 -2.21096 -107.4 -88.9735 107.281
RightUpLeg  0.519914 -7.78112 -4.03922
RightLeg  5.01789 -5.90265 3.66193
RightFoot  -4.41997 0.107036 -2.45797
RightToes  0.00048216 0.542163 -0.142577
Spine  0.747208 0.269047 -3.11197
Spine1  5.37724 -0.0847658 2.04332
HEad  -0.846341 -1.36544 -0.105277
LeftShoulder1  1.21393 -2.53296 -13.008
LeftArm  -18.4056 13.9599 -8.06679
LeftForeArm  21.1824 -2.87013 -0.662524
LeftHand  -0.25398 0.0180481 5.50724
RightShoulder  0.678743 0.576059 9.27902
RightArm  -26.5363 -6.14171 7.78563
RightForeArm  1.65967 2.98762 0.908023
RightHand  -1.7715 5.33186 -19.3808
LeftUpLeg  1.41536 3.35481 -0.114549
LeftLeg  1.68153 15.6311 -3.52047
LeftFoot  -3.3633 -0.0787476 1.49149
LeftToes  1.06247e-005 4.65855e-005 -8.185e-006
8
root  75.1683 40.4246 -2.21319 -106.529 -88.977 106.375
RightUpLeg  0.546486 -7.77497 -4.03616
RightLeg  5.02609 -5.91683 3.65178
RightFoot  -4.42177 0.106154 -2.44424
RightToes  0.00048216 0.542163 -0.142577
Spine  0.681818 0.249169 -3.05675
Spine1  5.50337 -0.0818058 1.93964
HEad  -0.915043 -1.39172 -0.173626
LeftShoulder1  1.21703 -2.53899 -13.0419
LeftArm  -18.5094 13.8858 -8.04385
LeftForeArm  21.185 -2.70796 -0.600904
LeftHand  -0.25398 0.0180481 5.50724
RightShoulder  0.649671 0.412614 9.22208
RightArm  -26.715 -5.96294 7.98849
RightForeArm  1.46835 2.90144 0.864648
RightHand  -1.75671 5.15805 -19.5254
LeftUpLeg  1.43959 3.36142 -0.105836
LeftLeg  1.69388 15.5863 -3.51357
LeftFoot  -3.36951 -0.0777168 1.47547
LeftToes  1.06247e-005 4.65855e-005 -8.185e-006
9
root  75.1736 40.423 -2.21485 -105.734 -88.9729 105.55
RightUpLeg  0.566981 -7.78286 -4.04556
RightLeg  5.03917 -5.92442 3.65048
RightFoot  -4.434 0.107076 -2.45859
RightToes  0.00048216 0.542163 -0.142577
Spine  0.836512 0.267715 -3.17575
Spine1  5.31973 -0.10733 2.13554
HEad  -0.909202 -1.44548 -0.350878
LeftShoulder1  1.24134 -2.58356 -13.3193
LeftArm  -18.4456 13.8965 -7.8301
LeftForeArm  21.0857 -2.66671 -0.608823
LeftHand  -0.25398 0.0180481 5.50724
RightShoulder  0.616226 0.259156 8.98671
RightArm  -26.7685 -5.94007 8.19443
RightForeArm  1.28262 2.93706 0.870836
RightHand  -1.72682 4.92698 -19.6129
LeftUpLeg  1.46418 3.36195 -0.106685
LeftLeg  1.69697 15.5735 -3.51267
LeftFoot  -3.38944 -0.0780978 1.48139
LeftToes  1.06247e-005 4.65855e-005 -8.185e-006
10
root  75.1837 40.4208 -2.21728 -107.375 -88.9662 107.188
RightUpLeg  0.538783 -7.78907 -4.04335
RightLeg  5.06736 -5.88857 3.65969
RightFoot  -4.45043 0.107742 -2.46897
RightToes  0.00048216 0.542163 -0.142577
Spine  0.885599 0.270344 -3.21184
Spine1  5.2699 -0.118941 2.19776
HEad  -0.973149 -1.3944 -0.405103
LeftShoulder1  1.25027 -2.59221 -13.4481
LeftArm  -18.3436 13.9822 -7.72347
LeftForeArm  20.9094 -2.76846 -0.656691
LeftHand  -0.25398 0.0180481 5.50724
RightShoulder  0.617734 0.281362 8.92264
RightArm  -26.6998 -6.00073 8.20402
RightForeArm  1.14389 3.0306 0.912232
RightHand  -1.70234 4.76413 -19.6391
LeftUpLeg  1.45014 3.37659 -0.0935323
LeftLeg  1.71044 15.5973 -3.52118
LeftFoot  -3.41341 -0.0790892 1.4968
LeftToes  1.06247e-005 4.65855e-005 -8.185e-006
11
root  75.2 40.4192 -2.21843 -112.41 -88.9478 112.223
RightUpLeg  0.479102 -7.78284 -4.02636
RightLeg  5.11354 -5.79781 3.66609
RightFoot  -4.45125 0.107691 -2.46818
RightToes  0.00048216 0.542163 -0.142577
Spine  0.8206 0.26941 -3.0861
Spine1  5.4079 -0.074493 1.99142
HEad  -1.11533 -1.29283 -0.289993
LeftShoulder1  1.2363 -2.5634 -13.3019
LeftArm  -18.3159 14.089 -7.83132
LeftForeArm  20.8283 -2.89742 -0.686138
LeftHand  -0.25398 0.0180481 5.50724
RightShoulder  0.635125 0.350351 9.10164
RightArm  -26.614 -5.97443 8.0739
RightForeArm  0.889259 3.0836 0.965074
RightHand  -1.68476 4.65146 -19.6507
LeftUpLeg  1.42802 3.40514 -0.0688759
LeftLeg  1.71561 15.6502 -3.53953
LeftFoot  -3.41525 -0.0796231 1.5051
LeftToes  1.06247e-005 4.65855e-005 -8.185e-006
12
root  75.2164 40.4181 -2.21554 -117.427 -88.9131 117.219
RightUpLeg  0.443238 -7.79042 -4.02629
RightLeg  5.15725 -5.70123 3.67652
RightFoot  -4.43623 0.110448 -2.51109
RightToes  0.00048216 0.542163 -0.142577
Spine  0.840679 0.296391 -3.00173
Spine1  5.47089 -0.0203956 1.8667
HEad  -1.22383 -1.23662 -0.21704
LeftShoulder1  1.22524 -2.53328 -13.2118
LeftArm  -18.3258 14.1509 -7.93706
LeftForeArm  20.9077 -2.95767 -0.687589
LeftHand  -0.25398 0.0180481 5.50724
RightShoulder  0.629806 0.305989 9.1584
RightArm  -26.6059 -5.88073 8.07052
RightForeArm  0.528472 3.08883 1.00183
RightHand  -1.66803 4.53005 -19.6883
LeftUpLeg  1.43846 3.42044 -0.0622528
LeftLeg  1.70188 15.7253 -3.55601
LeftFoot  -3.41475 -0.0802743 1.51523
LeftToes  1.06247e-005 4.65855e-005 -8.185e-006
